<svg width="21" height="20" viewBox="0 0 21 20" fill="none" xmlns="http://www.w3.org/2000/svg">
<path fill-rule="evenodd" clip-rule="evenodd" d="M3.76562 10C3.76562 6.54822 6.56384 3.75 10.0156 3.75C13.4674 3.75 16.2656 6.54822 16.2656 10C16.2656 13.4518 13.4674 16.25 10.0156 16.25C6.56384 16.25 3.76562 13.4518 3.76562 10ZM10.0156 5C7.2542 5 5.01562 7.23858 5.01562 10C5.01562 12.7614 7.2542 15 10.0156 15C12.777 15 15.0156 12.7614 15.0156 10C15.0156 7.23858 12.777 5 10.0156 5Z" fill="#1A1A1A" fill-opacity="0.61"/>
<path fill-rule="evenodd" clip-rule="evenodd" d="M10.0156 10C10.3608 10 10.6406 10.2798 10.6406 10.625V13.125C10.6406 13.4702 10.3608 13.75 10.0156 13.75C9.67044 13.75 9.39062 13.4702 9.39062 13.125V10.625C9.39062 10.2798 9.67044 10 10.0156 10Z" fill="#1A1A1A" fill-opacity="0.61"/>
<path fill-rule="evenodd" clip-rule="evenodd" d="M10.0156 7.92755C10.1019 7.92755 10.1718 7.85759 10.1718 7.7713C10.1718 7.68501 10.1019 7.61505 10.0156 7.61505V6.67755C9.41155 6.67755 8.92188 7.16724 8.92188 7.7713C8.92188 8.37537 9.41155 8.86505 10.0156 8.86505V7.92755Z" fill="#1A1A1A" fill-opacity="0.61"/>
<path fill-rule="evenodd" clip-rule="evenodd" d="M10.0156 6.67755C10.6197 6.67755 11.1094 7.16724 11.1094 7.7713C11.1094 8.37537 10.6197 8.86505 10.0156 8.86505V7.92755C9.92933 7.92755 9.85938 7.85759 9.85938 7.7713C9.85938 7.68501 9.92933 7.61505 10.0156 7.61505V6.67755Z" fill="#1A1A1A" fill-opacity="0.61"/>
</svg>
